<svg width="3286" height="869" viewBox="0 0 3286 869" fill="none" xmlns="http://www.w3.org/2000/svg">
<path d="M48.7993 158.892H139.799V697.892H48.7993V158.892ZM605.704 697.892L590.304 550.892L608.504 499.792L590.304 449.392L605.704 301.692H699.504L678.504 499.792L699.504 697.892H605.704ZM633.704 499.792C624.837 541.325 610.137 577.725 589.604 608.992C569.071 640.259 543.637 664.525 513.304 681.792C483.437 699.059 450.071 707.692 413.204 707.692C374.471 707.692 340.171 699.059 310.304 681.792C280.437 664.059 257.104 639.559 240.304 608.292C223.504 577.025 215.104 540.859 215.104 499.792C215.104 458.259 223.504 422.092 240.304 391.292C257.104 360.025 280.437 335.759 310.304 318.492C340.171 300.759 374.471 291.892 413.204 291.892C450.071 291.892 483.437 300.525 513.304 317.792C543.637 335.059 569.071 359.325 589.604 390.592C610.604 421.392 625.304 457.792 633.704 499.792ZM307.504 499.792C307.504 526.392 312.871 549.959 323.604 570.492C334.804 590.559 349.971 606.425 369.104 618.092C388.237 629.292 410.171 634.892 434.904 634.892C460.104 634.892 483.437 629.292 504.904 618.092C526.371 606.425 545.271 590.559 561.604 570.492C578.404 549.959 591.704 526.392 601.504 499.792C591.704 473.192 578.404 449.859 561.604 429.792C545.271 409.259 526.371 393.392 504.904 382.192C483.437 370.525 460.104 364.692 434.904 364.692C410.171 364.692 388.237 370.525 369.104 382.192C349.971 393.392 334.804 409.259 323.604 429.792C312.871 449.859 307.504 473.192 307.504 499.792ZM768.181 301.692H859.181L882.981 444.492V697.892H791.981V431.192L768.181 301.692ZM1040.48 291.892C1077.81 291.892 1109.55 299.359 1135.68 314.292C1161.81 329.225 1181.65 350.692 1195.18 378.692C1209.18 406.225 1216.18 439.592 1216.18 478.792V697.892H1125.18V493.492C1125.18 451.959 1115.38 420.692 1095.78 399.692C1076.65 378.225 1048.41 367.492 1011.08 367.492C985.414 367.492 962.781 373.325 943.181 384.992C924.047 396.192 909.114 412.059 898.381 432.592C888.114 453.125 882.981 477.159 882.981 504.692L850.781 487.192C854.981 446.125 865.714 411.125 882.981 382.192C900.247 353.259 922.414 331.092 949.481 315.692C976.547 299.825 1006.88 291.892 1040.48 291.892ZM1307.3 298.892L1352.8 307.292L1398.3 298.892V697.892H1307.3V298.892ZM1352.8 249.192C1335.53 249.192 1321.3 244.525 1310.1 235.192C1298.9 225.392 1293.3 212.792 1293.3 197.392C1293.3 181.992 1298.9 169.625 1310.1 160.292C1321.3 150.492 1335.53 145.592 1352.8 145.592C1370.53 145.592 1384.76 150.492 1395.5 160.292C1406.7 169.625 1412.3 181.992 1412.3 197.392C1412.3 212.792 1406.7 225.392 1395.5 235.192C1384.76 244.525 1370.53 249.192 1352.8 249.192ZM1713.7 707.692C1665.63 707.692 1623.4 699.059 1587 681.792C1551.07 664.059 1522.83 639.559 1502.3 608.292C1482.23 577.025 1472.2 540.859 1472.2 499.792C1472.2 458.259 1482.23 422.092 1502.3 391.292C1522.83 360.025 1551.07 335.759 1587 318.492C1623.4 300.759 1665.63 291.892 1713.7 291.892C1761.77 291.892 1803.77 300.759 1839.7 318.492C1876.1 335.759 1904.33 360.025 1924.4 391.292C1944.93 422.092 1955.2 458.259 1955.2 499.792C1955.2 540.859 1944.93 577.025 1924.4 608.292C1904.33 639.559 1876.1 664.059 1839.7 681.792C1803.77 699.059 1761.77 707.692 1713.7 707.692ZM1713.7 636.292C1744.5 636.292 1770.87 630.692 1792.8 619.492C1815.2 608.292 1832.47 592.659 1844.6 572.592C1856.73 552.059 1862.8 527.792 1862.8 499.792C1862.8 471.792 1856.73 447.759 1844.6 427.692C1832.47 407.159 1815.2 391.292 1792.8 380.092C1770.87 368.892 1744.5 363.292 1713.7 363.292C1683.37 363.292 1657 368.892 1634.6 380.092C1612.2 391.292 1594.93 407.159 1582.8 427.692C1570.67 447.759 1564.6 471.792 1564.6 499.792C1564.6 527.792 1570.67 552.059 1582.8 572.592C1594.93 592.659 1612.2 608.292 1634.6 619.492C1657 630.692 1683.37 636.292 1713.7 636.292ZM2010.27 301.692H2101.27L2125.07 445.892V697.892H2034.07V428.392L2010.27 301.692ZM2325.97 298.892V378.692C2315.7 375.892 2304.5 373.792 2292.37 372.392C2280.24 370.992 2268.8 370.292 2258.07 370.292C2232.4 370.292 2209.54 375.892 2189.47 387.092C2169.4 398.292 2153.54 415.092 2141.87 437.492C2130.67 459.425 2125.07 486.492 2125.07 518.692L2104.07 492.792C2105.94 464.792 2110.6 438.659 2118.07 414.392C2126 389.659 2136.74 368.192 2150.27 349.992C2164.27 331.792 2181.3 317.559 2201.37 307.292C2221.44 297.025 2244.77 291.892 2271.37 291.892C2280.7 291.892 2290.27 292.592 2300.07 293.992C2309.87 294.925 2318.5 296.559 2325.97 298.892Z" fill="white"/>
<path d="M3105.19 65.4766C3098.45 65.4766 3091.63 65.7803 3084.92 66.3861C3015.64 72.6538 2952.47 114.727 2906.45 185.084C2853.07 106.345 2764.82 55.7842 2679.94 55.7842C2661.29 55.7842 2642.81 58.196 2625.02 62.9582C2570.05 77.6729 2525.23 118.597 2502.06 175.256C2476.39 238.026 2480.81 311.552 2513.6 367.14C2558.63 443.489 2635.83 490.09 2710.48 535.148C2748.82 558.305 2788.48 582.226 2822.49 609.647C2832.62 617.802 2845.35 628.433 2856.27 640.015C2842.49 653.591 2815.25 698.715 2814.99 699.257C2806.43 717.262 2794.67 755.332 2804.89 783.813C2809.26 795.963 2817.11 804.765 2828.24 809.973C2833.95 812.638 2839.95 814 2846.09 814C2872.45 814 2896.87 789.013 2912.73 768.063C2941.72 729.705 2946.06 689.445 2925.62 648.341C2960.7 616.605 2998.87 587.106 3035.8 558.558C3099.33 509.457 3165.02 458.672 3217.29 394.844C3242.83 363.652 3321.78 253.962 3265.97 151.77C3236.47 97.7345 3176.36 65.4766 3105.19 65.4766ZM2876.83 725.408C2871.52 735.547 2866.16 742.866 2860.58 747.541C2861.71 732.481 2867.45 717.779 2871.13 709.691C2872.17 707.419 2878.95 696.935 2883.82 689.923C2885.35 701.849 2883.04 713.53 2876.83 725.408ZM2813.34 160.774C2829.7 174.248 2844.15 189.468 2856.31 205.981C2857.76 207.95 2859.99 211.662 2862.57 215.959C2877.5 240.824 2893.54 265.1 2910.9 265.1C2919.51 265.1 2926.8 259.045 2932.57 247.09C2969.39 170.835 3028.15 125.371 3098.02 119.063C3102.08 118.69 3106.19 118.517 3110.26 118.517C3163.71 118.517 3210.72 149.804 3227.24 196.363C3249 257.742 3214.55 330.477 3121.94 418.716C3082.17 456.614 3038.06 490.689 2995.41 523.65C2961.94 549.506 2927.35 576.231 2894.97 604.694C2865.85 572.417 2827.65 545.378 2797.34 525.257C2779.36 513.313 2759.92 501.632 2739.34 489.263C2638.17 428.462 2523.52 359.549 2541.6 231.235C2551.93 157.868 2606.54 110.462 2680.72 110.462C2686.17 110.462 2691.75 110.721 2697.31 111.257C2738.1 115.137 2779.3 132.727 2813.34 160.774Z" fill="white"/>
</svg>
